<?xml version="1.0" encoding="UTF-8" standalone="no"?>
<!-- Created with Inkscape (http://www.inkscape.org/) -->

<svg
   width="1023.439"
   height="1023.8566"
   viewBox="0 0 1023.439 1023.8566"
   version="1.1"
   id="svg1"
   xml:space="preserve"
   xmlns="http://www.w3.org/2000/svg"
   xmlns:svg="http://www.w3.org/2000/svg"><defs
     id="defs1" /><g
     id="layer3"
     style="display:inline"
     transform="translate(1164.3903,-46.279114)"><path
       style="fill:#d0ff48;fill-opacity:0.14367;stroke:none;stroke-width:19.9605;stroke-linecap:round;stroke-linejoin:round;stroke-dasharray:none;stroke-dashoffset:0;stroke-opacity:1"
       id="path26"
       d="M -1164.3903,537.53141 A 511.92834,511.92834 0 0 1 -643.30802,46.368603 511.92834,511.92834 0 0 1 -140.9536,556.67014 511.92834,511.92834 0 0 1 -640.2341,1069.9796 511.92834,511.92834 0 0 1 -1164.2569,581.95525" /><path
       style="fill:#cefd42;fill-opacity:0.150462;stroke:none;stroke-width:15.4288;stroke-linecap:round;stroke-linejoin:round;stroke-dasharray:none;stroke-dashoffset:0;stroke-opacity:1"
       id="path25"
       d="m -1048.5498,542.23905 a 396.04065,395.3696 0 0 1 403.12231,-379.33208 396.04065,395.3696 0 0 1 388.63402,394.11319 396.04065,395.3696 0 0 1 -386.25596,396.43626 396.04065,395.3696 0 0 1 -405.39717,-376.9082" /><path
       style="fill:#bbd958;fill-opacity:0.227451;stroke:none;stroke-width:10.6983;stroke-linecap:round;stroke-linejoin:round;stroke-dasharray:none;stroke-dashoffset:0;stroke-opacity:1"
       id="path21"
       d="M -926.94018,547.12559 A 274.38135,274.38135 0 0 1 -647.65256,283.87407 274.38135,274.38135 0 0 1 -378.4026,557.38349 274.38135,274.38135 0 0 1 -646.00501,832.50508 274.38135,274.38135 0 0 1 -926.86868,570.93571" /></g><g
     id="layer2"
     style="display:inline"
     transform="translate(1164.3903,-46.279114)"><g
       id="g26"
       transform="matrix(1.1598493,0,0,1.1598493,-1801.3406,-97.273135)"><path
         style="fill:#9ab15b;fill-opacity:1;stroke:#818f57;stroke-width:11.4103;stroke-linecap:round;stroke-linejoin:round;stroke-dasharray:none;stroke-opacity:1"
         d="M 672.27601,853.28231 V 461.17452 c 0,-22.49045 18.23176,-40.83585 40.72164,-40.99479 94.85902,-0.67038 332.59065,-2.26751 492.41045,-1.14516 23.3708,0.16413 42.3149,19.3324 42.3137,42.70425 l -0.02,384.52395 a 37.145909,37.145909 135.0135 0 1 -37.1615,37.14398 l -508.36577,-0.21327 a 29.911171,29.911171 45.012018 0 1 -29.89862,-29.91117 z"
         id="path4"
         transform="matrix(0.53171392,0,0,0.52058989,480.33338,216.19476)" /><path
         style="fill:none;fill-opacity:1;stroke:#818f57;stroke-width:6;stroke-linecap:round;stroke-linejoin:round;stroke-dasharray:12, 12;stroke-dashoffset:0;stroke-opacity:1"
         d="m 947.57989,546.06737 c -1.51796,-9.00783 12.1907,-79.30315 66.23041,-90.91126 54.0396,-11.60814 51.749,38.86587 105.4789,14.19176 53.7301,-24.67414 40.7371,-122.87736 40.7371,-122.87736 v 0"
         id="path9" /><path
         style="fill:#f4fed9;fill-opacity:1;stroke:#818f57;stroke-width:11.2916;stroke-linecap:round;stroke-linejoin:round;stroke-dasharray:none;stroke-opacity:1"
         d="M 518.04351,791.74002 V 450.48447 c 0,-22.00178 17.83596,-39.83593 39.83774,-39.83452 79.72245,0.005 109.85303,-0.002 164.10239,-0.003 7.9363,-1.7e-4 18.49029,4.94094 23.57301,11.03609 l 40.99077,49.1558 a 19.658223,19.658223 25.08772 0 0 15.0977,7.06833 h 254.00198 a 38.191713,38.191713 45.001988 0 1 38.1917,38.19436 l -0.019,271.78882 a 35.84263,35.84263 135.01271 0 1 -35.8561,35.84014 l -508.13203,-0.19014 a 31.800259,31.800259 45.01072 0 1 -31.78836,-31.80026 z"
         id="path1"
         transform="matrix(0.53165289,0.00487479,0,0.53165289,562.47504,238.6979)" /><g
         id="g41"
         transform="translate(2.0271033,11.930226)"
         style="fill:#606c43;fill-opacity:1"><circle
           style="fill:#606c43;fill-opacity:1;stroke:none;stroke-width:3.46037;stroke-linecap:round;stroke-linejoin:round;stroke-dasharray:none;stroke-opacity:1"
           id="path7"
           cx="961.13751"
           cy="551.60193"
           r="13.11111" /><circle
           style="fill:#606c43;fill-opacity:1;stroke:none;stroke-width:3.46037;stroke-linecap:round;stroke-linejoin:round;stroke-dasharray:none;stroke-opacity:1"
           id="circle7"
           cx="1016.7203"
           cy="551.60193"
           r="13.11111" /><path
           style="fill:none;fill-opacity:1;stroke:#5a643c;stroke-width:6.00321;stroke-linecap:round;stroke-linejoin:round;stroke-dasharray:none;stroke-opacity:1"
           id="path8"
           d="m -981.22235,-576.16992 a 7.7066021,7.7066021 0 0 1 -3.8567,6.67607 7.7066021,7.7066021 0 0 1 -7.71,-0.006 7.7066021,7.7066021 0 0 1 -3.8465,-6.68196"
           transform="scale(-1)" /></g><g
         id="g21"
         transform="matrix(0.46592783,-0.05786799,0.05786799,0.46592783,894.88946,105.13789)"
         style="fill:#b4cf66;fill-opacity:1"><g
           id="g17"
           transform="translate(2.3797043)"
           style="fill:#b4cf66;fill-opacity:1"><path
             style="fill:#b4cf66;fill-opacity:1;stroke:none;stroke-width:10.5783;stroke-linecap:round;stroke-linejoin:round;stroke-dasharray:42.3133, 21.1566;stroke-dashoffset:0;stroke-opacity:1"
             id="path13"
             d="m 436.65153,545.07174 a 31.607662,41.477364 0 0 1 32.17284,-39.7949 31.607662,41.477364 0 0 1 31.01655,41.34555 31.607662,41.477364 0 0 1 -30.82676,41.58927 31.607662,41.477364 0 0 1 -32.3544,-39.54062" /><g
             id="g16"
             style="fill:#b4cf66;fill-opacity:1"><path
               style="fill:#b4cf66;fill-opacity:1;stroke:none;stroke-width:10.5783;stroke-linecap:round;stroke-linejoin:round;stroke-dasharray:42.3133, 21.1566;stroke-dashoffset:0;stroke-opacity:1"
               id="path14"
               d="m 491.64945,545.07174 a 31.607662,41.477364 0 0 1 32.17285,-39.7949 31.607662,41.477364 0 0 1 31.01654,41.34555 31.607662,41.477364 0 0 1 -30.82675,41.58927 31.607662,41.477364 0 0 1 -32.3544,-39.54062" /></g></g><g
           id="g18"
           style="fill:#b4cf66;fill-opacity:1"><path
             style="fill:#b4cf66;fill-opacity:1;stroke:none;stroke-width:8;stroke-linecap:round;stroke-linejoin:round;stroke-dasharray:32, 16;stroke-dashoffset:0;stroke-opacity:1"
             id="path11"
             d="m 411.36164,487.83159 a 52.488747,52.488747 0 0 1 53.42731,-50.35962 52.488747,52.488747 0 0 1 51.50712,52.32194 52.488747,52.488747 0 0 1 -51.19195,52.63036 52.488747,52.488747 0 0 1 -53.7288,-50.03784" /><path
             style="fill:#b4cf66;fill-opacity:1;stroke:none;stroke-width:8;stroke-linecap:round;stroke-linejoin:round;stroke-dasharray:32, 16;stroke-dashoffset:0;stroke-opacity:1"
             id="path12"
             d="m 479.95362,488.45366 a 52.488747,52.488747 0 0 1 53.42731,-50.35962 52.488747,52.488747 0 0 1 51.50712,52.32194 52.488747,52.488747 0 0 1 -51.19195,52.63036 52.488747,52.488747 0 0 1 -53.7288,-50.03784" /><path
             style="fill:#e3fba1;fill-opacity:1;stroke:none;stroke-width:8;stroke-linecap:round;stroke-linejoin:round;stroke-dasharray:32, 16;stroke-dashoffset:0;stroke-opacity:1"
             id="path15"
             d="m 441.33197,489.04255 a 22.506184,22.506184 0 0 1 22.90863,-21.59326 22.506184,22.506184 0 0 1 22.08528,22.43466 22.506184,22.506184 0 0 1 -21.95014,22.5669 22.506184,22.506184 0 0 1 -23.0379,-21.45527" /><path
             style="fill:#e3fba1;fill-opacity:1;stroke:none;stroke-width:8;stroke-linecap:round;stroke-linejoin:round;stroke-dasharray:32, 16;stroke-dashoffset:0;stroke-opacity:1"
             id="path16"
             d="m 509.92392,489.66462 a 22.506184,22.506184 0 0 1 22.90863,-21.59326 22.506184,22.506184 0 0 1 22.08528,22.43466 22.506184,22.506184 0 0 1 -21.95014,22.5669 22.506184,22.506184 0 0 1 -23.0379,-21.45527" /></g><path
           style="fill:#b4cf66;fill-opacity:1;stroke:none;stroke-width:6.2847;stroke-linecap:round;stroke-linejoin:round;stroke-dasharray:25.1388, 12.5694;stroke-dashoffset:0;stroke-opacity:1"
           id="path18"
           d="m 480.96566,450.18931 a 17.695631,11.629237 0 0 1 18.01205,-11.15752 17.695631,11.629237 0 0 1 17.36469,11.59228 17.695631,11.629237 0 0 1 -17.25844,11.66062 17.695631,11.629237 0 0 1 -18.11369,-11.08623" /><g
           id="g20"
           style="fill:none;fill-opacity:1;stroke:#b4cf66;stroke-opacity:1"><path
             style="fill:none;fill-opacity:1;stroke:#b4cf66;stroke-width:3;stroke-linecap:round;stroke-linejoin:round;stroke-dasharray:none;stroke-dashoffset:0;stroke-opacity:1"
             d="M 491.04983,443.11371 C 477.21354,420.8517 456.45033,414.5881 456.45033,414.5881"
             id="path19" /><path
             style="fill:none;fill-opacity:1;stroke:#b4cf66;stroke-width:2.77805;stroke-linecap:round;stroke-linejoin:round;stroke-dasharray:none;stroke-dashoffset:0;stroke-opacity:1"
             d="m 500.31475,443.79332 c 11.7731,-22.43523 29.44022,-28.74757 29.44022,-28.74757"
             id="path20" /></g></g><path
         style="fill:#efefef;fill-opacity:1;stroke:#bcdd69;stroke-width:9.60514;stroke-linecap:round;stroke-linejoin:round;stroke-dasharray:none;stroke-dashoffset:0;stroke-opacity:1"
         d="m 942.92198,369.95536 22.24623,38.5316"
         id="path22" /><path
         style="fill:#efefef;fill-opacity:1;stroke:#bcdd69;stroke-width:9.60514;stroke-linecap:round;stroke-linejoin:round;stroke-dasharray:none;stroke-dashoffset:0;stroke-opacity:1"
         d="m 1001.624,353.22623 v 44.49245"
         id="path23" /><path
         style="fill:#efefef;fill-opacity:1;stroke:#bcdd69;stroke-width:9.60514;stroke-linecap:round;stroke-linejoin:round;stroke-dasharray:none;stroke-dashoffset:0;stroke-opacity:1"
         d="m 1060.326,368.88558 -22.2462,38.53159"
         id="path24" /></g><g
       id="g32"
       style="stroke:#c4df79;stroke-width:5;stroke-dasharray:none;stroke-opacity:1"
       transform="translate(-2402.3031,-126.26326)"><g
         id="g31"
         transform="matrix(0.43046101,0,0,0.43046101,844.46294,278.92934)"
         style="stroke:#c4df79;stroke-width:11.6155;stroke-dasharray:none;stroke-opacity:1"><path
           style="fill:#efefef;fill-opacity:1;stroke:#c4df79;stroke-width:11.6155;stroke-linecap:round;stroke-linejoin:round;stroke-dasharray:none;stroke-dashoffset:0;stroke-opacity:1"
           d="m 1615.7146,551.08101 h -44.4924"
           id="path28" /><path
           style="fill:#efefef;fill-opacity:1;stroke:#c4df79;stroke-width:11.6155;stroke-linecap:round;stroke-linejoin:round;stroke-dasharray:none;stroke-dashoffset:0;stroke-opacity:1"
           d="m 1532.0081,551.08101 h -44.4924"
           id="path29" /></g><g
         id="g30"
         transform="matrix(0.43046101,0,0,0.43046101,844.32926,277.95057)"
         style="stroke:#c4df79;stroke-width:11.6155;stroke-dasharray:none;stroke-opacity:1"><path
           style="fill:#efefef;fill-opacity:1;stroke:#c4df79;stroke-width:11.6155;stroke-linecap:round;stroke-linejoin:round;stroke-dasharray:none;stroke-dashoffset:0;stroke-opacity:1"
           d="m 1551.9257,496.82215 v 44.49243"
           id="path27" /><path
           style="fill:#efefef;fill-opacity:1;stroke:#c4df79;stroke-width:11.6155;stroke-linecap:round;stroke-linejoin:round;stroke-dasharray:none;stroke-dashoffset:0;stroke-opacity:1"
           d="m 1551.9257,565.39496 v 44.49243"
           id="path30" /></g></g><g
       id="g36"
       style="stroke:#c4df79;stroke-width:8.34939;stroke-dasharray:none;stroke-opacity:1"
       transform="matrix(1.0417608,0,0,1.0417608,-2226.7252,-396.72619)"><g
         id="g33"
         transform="matrix(0.43046101,0,0,0.43046101,844.46294,278.92934)"
         style="stroke:#c4df79;stroke-width:19.3964;stroke-dasharray:none;stroke-opacity:1"><path
           style="fill:#efefef;fill-opacity:1;stroke:#c4df79;stroke-width:19.3964;stroke-linecap:round;stroke-linejoin:round;stroke-dasharray:none;stroke-dashoffset:0;stroke-opacity:1"
           d="m 1631.9347,551.08101 h -44.4924"
           id="path32" /><path
           style="fill:#efefef;fill-opacity:1;stroke:#c4df79;stroke-width:19.3964;stroke-linecap:round;stroke-linejoin:round;stroke-dasharray:none;stroke-dashoffset:0;stroke-opacity:1"
           d="m 1532.0081,551.08101 h -44.4924"
           id="path33" /></g><g
         id="g35"
         transform="matrix(0.43046101,0,0,0.43046101,847.82032,271.77668)"
         style="stroke:#c4df79;stroke-width:19.3964;stroke-dasharray:none;stroke-opacity:1"><path
           style="fill:#efefef;fill-opacity:1;stroke:#c4df79;stroke-width:19.3964;stroke-linecap:round;stroke-linejoin:round;stroke-dasharray:none;stroke-dashoffset:0;stroke-opacity:1"
           d="m 1551.9257,496.82215 v 44.49243"
           id="path34" /><path
           style="fill:#efefef;fill-opacity:1;stroke:#c4df79;stroke-width:19.3964;stroke-linecap:round;stroke-linejoin:round;stroke-dasharray:none;stroke-dashoffset:0;stroke-opacity:1"
           d="m 1551.9257,594.08001 v 44.49243"
           id="path35" /></g></g><g
       id="g40"
       style="stroke:#c4df79;stroke-width:8.34939;stroke-dasharray:none;stroke-opacity:1"
       transform="matrix(1.4225012,0,0,1.4225012,-2550.5699,112.20219)"><g
         id="g37"
         transform="matrix(0.43046101,0,0,0.43046101,844.46294,278.92934)"
         style="stroke:#c4df79;stroke-width:19.3964;stroke-dasharray:none;stroke-opacity:1"><path
           style="fill:#efefef;fill-opacity:1;stroke:#c4df79;stroke-width:19.3964;stroke-linecap:round;stroke-linejoin:round;stroke-dasharray:none;stroke-dashoffset:0;stroke-opacity:1"
           d="m 1631.9347,551.08101 h -44.4924"
           id="path36" /><path
           style="fill:#efefef;fill-opacity:1;stroke:#c4df79;stroke-width:19.3964;stroke-linecap:round;stroke-linejoin:round;stroke-dasharray:none;stroke-dashoffset:0;stroke-opacity:1"
           d="m 1532.0081,551.08101 h -44.4924"
           id="path37" /></g><g
         id="g39"
         transform="matrix(0.43046101,0,0,0.43046101,847.82032,271.77668)"
         style="stroke:#c4df79;stroke-width:19.3964;stroke-dasharray:none;stroke-opacity:1"><path
           style="fill:#efefef;fill-opacity:1;stroke:#c4df79;stroke-width:19.3964;stroke-linecap:round;stroke-linejoin:round;stroke-dasharray:none;stroke-dashoffset:0;stroke-opacity:1"
           d="m 1551.9257,496.82215 v 44.49243"
           id="path38" /><path
           style="fill:#efefef;fill-opacity:1;stroke:#c4df79;stroke-width:19.3964;stroke-linecap:round;stroke-linejoin:round;stroke-dasharray:none;stroke-dashoffset:0;stroke-opacity:1"
           d="m 1551.9257,594.08001 v 44.49243"
           id="path39" /></g></g></g></svg>
