<?xml version="1.0" encoding="UTF-8" standalone="no"?>
<!-- Created with Inkscape (http://www.inkscape.org/) -->

<svg
   width="1926.8835"
   height="143.28027"
   viewBox="0 0 1926.8835 143.28027"
   version="1.1"
   id="svg1"
   inkscape:version="1.3.2 (091e20ef0f, 2023-11-25)"
   sodipodi:docname="drawing-2.svg"
   xml:space="preserve"
   xmlns:inkscape="http://www.inkscape.org/namespaces/inkscape"
   xmlns:sodipodi="http://sodipodi.sourceforge.net/DTD/sodipodi-0.dtd"
   xmlns:xlink="http://www.w3.org/1999/xlink"
   xmlns="http://www.w3.org/2000/svg"
   xmlns:svg="http://www.w3.org/2000/svg"><sodipodi:namedview
     id="namedview1"
     pagecolor="#ffffff"
     bordercolor="#000000"
     borderopacity="0.25"
     inkscape:showpageshadow="2"
     inkscape:pageopacity="0.0"
     inkscape:pagecheckerboard="0"
     inkscape:deskcolor="#d1d1d1"
     inkscape:document-units="px"
     inkscape:zoom="0.37491391"
     inkscape:cx="748.17176"
     inkscape:cy="534.78944"
     inkscape:window-width="1366"
     inkscape:window-height="698"
     inkscape:window-x="0"
     inkscape:window-y="0"
     inkscape:window-maximized="1"
     inkscape:current-layer="layer8" /><defs
     id="defs1"><linearGradient
       id="linearGradient454"
       inkscape:collect="always"><stop
         style="stop-color:#b4cf66;stop-opacity:0.66455603;"
         offset="0"
         id="stop453" /><stop
         style="stop-color:#b0d058;stop-opacity:0.29843941;"
         offset="1"
         id="stop454" /></linearGradient><linearGradient
       id="linearGradient438"
       inkscape:collect="always"><stop
         style="stop-color:#b4ce65;stop-opacity:0.26299259;"
         offset="0"
         id="stop437" /><stop
         style="stop-color:#b4ce65;stop-opacity:0.0802215;"
         offset="1"
         id="stop438" /></linearGradient><linearGradient
       id="linearGradient434"
       inkscape:collect="always"><stop
         style="stop-color:#b4ce65;stop-opacity:0;"
         offset="0"
         id="stop433" /><stop
         style="stop-color:#b4ce65;stop-opacity:0.09323659;"
         offset="1"
         id="stop434" /></linearGradient><linearGradient
       id="linearGradient430"
       inkscape:collect="always"><stop
         style="stop-color:#b4cf66;stop-opacity:0.86698312;"
         offset="0"
         id="stop429" /><stop
         style="stop-color:#b0d058;stop-opacity:0.20418438;"
         offset="1"
         id="stop430" /></linearGradient><linearGradient
       id="linearGradient386"
       inkscape:collect="always"><stop
         style="stop-color:#b4cf66;stop-opacity:0.54165137;"
         offset="0"
         id="stop385" /><stop
         style="stop-color:#b0d058;stop-opacity:0.13680492;"
         offset="1"
         id="stop386" /></linearGradient><linearGradient
       id="linearGradient338"
       inkscape:collect="always"><stop
         style="stop-color:#000000;stop-opacity:1;"
         offset="0"
         id="stop338" /><stop
         style="stop-color:#000000;stop-opacity:0;"
         offset="1"
         id="stop339" /></linearGradient><linearGradient
       id="linearGradient91"
       inkscape:collect="always"><stop
         style="stop-color:#b4cf66;stop-opacity:1;"
         offset="0"
         id="stop214" /><stop
         style="stop-color:#acc761;stop-opacity:1;"
         offset="1"
         id="stop215" /></linearGradient><linearGradient
       inkscape:collect="always"
       xlink:href="#linearGradient91"
       id="linearGradient215"
       x1="-6.6018665e-06"
       y1="85.442467"
       x2="1912.931"
       y2="85.442467"
       gradientUnits="userSpaceOnUse" /><linearGradient
       inkscape:collect="always"
       xlink:href="#linearGradient434"
       id="linearGradient299"
       x1="-6.6018665e-06"
       y1="82.383476"
       x2="1912.931"
       y2="82.383476"
       gradientUnits="userSpaceOnUse" /><linearGradient
       inkscape:collect="always"
       xlink:href="#linearGradient338"
       id="linearGradient339"
       x1="-6.6018665e-06"
       y1="81.599571"
       x2="1912.931"
       y2="81.599571"
       gradientUnits="userSpaceOnUse" /><linearGradient
       inkscape:collect="always"
       xlink:href="#linearGradient338"
       id="linearGradient367"
       gradientUnits="userSpaceOnUse"
       x1="-6.6018665e-06"
       y1="81.599571"
       x2="1912.931"
       y2="81.599571" /><linearGradient
       inkscape:collect="always"
       xlink:href="#linearGradient338"
       id="linearGradient369"
       gradientUnits="userSpaceOnUse"
       x1="-6.6018665e-06"
       y1="81.599571"
       x2="1912.931"
       y2="81.599571" /><linearGradient
       inkscape:collect="always"
       xlink:href="#linearGradient338"
       id="linearGradient371"
       gradientUnits="userSpaceOnUse"
       x1="-6.6018665e-06"
       y1="81.599571"
       x2="1912.931"
       y2="81.599571" /><linearGradient
       inkscape:collect="always"
       xlink:href="#linearGradient338"
       id="linearGradient373"
       gradientUnits="userSpaceOnUse"
       x1="-6.6018665e-06"
       y1="81.599571"
       x2="1912.931"
       y2="81.599571" /><linearGradient
       inkscape:collect="always"
       xlink:href="#linearGradient338"
       id="linearGradient375"
       gradientUnits="userSpaceOnUse"
       x1="-6.6018665e-06"
       y1="81.599571"
       x2="1912.931"
       y2="81.599571" /><linearGradient
       inkscape:collect="always"
       xlink:href="#linearGradient338"
       id="linearGradient377"
       gradientUnits="userSpaceOnUse"
       x1="-6.6018665e-06"
       y1="81.599571"
       x2="1912.931"
       y2="81.599571" /><linearGradient
       inkscape:collect="always"
       xlink:href="#linearGradient338"
       id="linearGradient378"
       gradientUnits="userSpaceOnUse"
       x1="-6.6018665e-06"
       y1="81.599571"
       x2="1912.931"
       y2="81.599571" /><linearGradient
       inkscape:collect="always"
       xlink:href="#linearGradient454"
       id="linearGradient385"
       gradientUnits="userSpaceOnUse"
       x1="-6.6018665e-06"
       y1="85.442467"
       x2="1912.931"
       y2="85.442467" /><linearGradient
       inkscape:collect="always"
       xlink:href="#linearGradient386"
       id="linearGradient407"
       gradientUnits="userSpaceOnUse"
       x1="-6.6018665e-06"
       y1="85.442467"
       x2="1912.931"
       y2="85.442467"
       gradientTransform="translate(290.35973,-8.169058)" /><linearGradient
       inkscape:collect="always"
       xlink:href="#linearGradient386"
       id="linearGradient408"
       gradientUnits="userSpaceOnUse"
       x1="-6.6018665e-06"
       y1="85.442467"
       x2="1912.931"
       y2="85.442467"
       gradientTransform="translate(362.01048,1.2571108)" /><linearGradient
       inkscape:collect="always"
       xlink:href="#linearGradient386"
       id="linearGradient409"
       gradientUnits="userSpaceOnUse"
       x1="-6.6018665e-06"
       y1="85.442467"
       x2="1912.931"
       y2="85.442467"
       gradientTransform="translate(309.94468,14.378945)" /><linearGradient
       inkscape:collect="always"
       xlink:href="#linearGradient386"
       id="linearGradient410"
       gradientUnits="userSpaceOnUse"
       x1="-6.6018665e-06"
       y1="85.442467"
       x2="1912.931"
       y2="85.442467"
       gradientTransform="translate(-67.815416,-10.608505)" /><linearGradient
       inkscape:collect="always"
       xlink:href="#linearGradient386"
       id="linearGradient411"
       gradientUnits="userSpaceOnUse"
       x1="-6.6018665e-06"
       y1="85.442467"
       x2="1912.931"
       y2="85.442467"
       gradientTransform="translate(-43.877725,1.0518672)" /><linearGradient
       inkscape:collect="always"
       xlink:href="#linearGradient386"
       id="linearGradient412"
       gradientUnits="userSpaceOnUse"
       gradientTransform="translate(525.99785,24.355078)"
       x1="-6.6018665e-06"
       y1="85.442467"
       x2="1912.931"
       y2="85.442467" /><linearGradient
       inkscape:collect="always"
       xlink:href="#linearGradient430"
       id="linearGradient432"
       gradientUnits="userSpaceOnUse"
       x1="-6.6018665e-06"
       y1="85.442467"
       x2="1912.931"
       y2="85.442467"
       gradientTransform="matrix(1.0049408,0,0,1.0049408,-0.04194639,-0.64173912)" /><linearGradient
       inkscape:collect="always"
       xlink:href="#linearGradient430"
       id="linearGradient433"
       gradientUnits="userSpaceOnUse"
       x1="-6.6018665e-06"
       y1="85.442467"
       x2="1912.931"
       y2="85.442467"
       gradientTransform="matrix(1.0049408,0,0,1.0049408,-0.04194639,-0.64173912)" /><linearGradient
       inkscape:collect="always"
       xlink:href="#linearGradient438"
       id="linearGradient437"
       gradientUnits="userSpaceOnUse"
       x1="-6.6018665e-06"
       y1="82.383476"
       x2="1912.931"
       y2="82.383476" /><linearGradient
       inkscape:collect="always"
       xlink:href="#linearGradient454"
       id="linearGradient497"
       gradientUnits="userSpaceOnUse"
       x1="-6.6018665e-06"
       y1="85.442467"
       x2="1912.931"
       y2="85.442467"
       gradientTransform="translate(-247.52798,-61.458279)" /><linearGradient
       inkscape:collect="always"
       xlink:href="#linearGradient454"
       id="linearGradient498"
       gradientUnits="userSpaceOnUse"
       x1="-6.6018665e-06"
       y1="85.442467"
       x2="1912.931"
       y2="85.442467"
       gradientTransform="translate(84.878312,20.336863)" /><linearGradient
       inkscape:collect="always"
       xlink:href="#linearGradient454"
       id="linearGradient499"
       gradientUnits="userSpaceOnUse"
       x1="-6.6018665e-06"
       y1="85.442467"
       x2="1912.931"
       y2="85.442467"
       gradientTransform="translate(436.08084,88.658435)" /><linearGradient
       inkscape:collect="always"
       xlink:href="#linearGradient454"
       id="linearGradient500"
       gradientUnits="userSpaceOnUse"
       x1="-6.6018665e-06"
       y1="85.442467"
       x2="1912.931"
       y2="85.442467"
       gradientTransform="translate(130.20319,-17.528245)" /><linearGradient
       inkscape:collect="always"
       xlink:href="#linearGradient454"
       id="linearGradient501"
       gradientUnits="userSpaceOnUse"
       x1="-6.6018665e-06"
       y1="85.442467"
       x2="1912.931"
       y2="85.442467"
       gradientTransform="translate(-57.581144,25.680999)" /><linearGradient
       inkscape:collect="always"
       xlink:href="#linearGradient454"
       id="linearGradient502"
       gradientUnits="userSpaceOnUse"
       x1="-6.6018665e-06"
       y1="85.442467"
       x2="1912.931"
       y2="85.442467"
       gradientTransform="translate(-14.598808,27.206134)" /><linearGradient
       inkscape:collect="always"
       xlink:href="#linearGradient438"
       id="linearGradient1"
       gradientUnits="userSpaceOnUse"
       x1="-6.6018665e-06"
       y1="82.383476"
       x2="1912.931"
       y2="82.383476" /><linearGradient
       inkscape:collect="always"
       xlink:href="#linearGradient438"
       id="linearGradient6"
       gradientUnits="userSpaceOnUse"
       x1="-6.6018665e-06"
       y1="82.383476"
       x2="1912.931"
       y2="82.383476" /><linearGradient
       inkscape:collect="always"
       xlink:href="#linearGradient438"
       id="linearGradient7"
       gradientUnits="userSpaceOnUse"
       x1="-6.6018665e-06"
       y1="82.383476"
       x2="1912.931"
       y2="82.383476" /><linearGradient
       inkscape:collect="always"
       xlink:href="#linearGradient438"
       id="linearGradient9"
       gradientUnits="userSpaceOnUse"
       x1="-6.6018665e-06"
       y1="82.383476"
       x2="1912.931"
       y2="82.383476" /><linearGradient
       inkscape:collect="always"
       xlink:href="#linearGradient438"
       id="linearGradient11"
       gradientUnits="userSpaceOnUse"
       x1="-6.6018665e-06"
       y1="82.383476"
       x2="1912.931"
       y2="82.383476" /><linearGradient
       inkscape:collect="always"
       xlink:href="#linearGradient438"
       id="linearGradient17"
       gradientUnits="userSpaceOnUse"
       x1="-6.6018665e-06"
       y1="82.383476"
       x2="1912.931"
       y2="82.383476" /><linearGradient
       inkscape:collect="always"
       xlink:href="#linearGradient438"
       id="linearGradient18"
       gradientUnits="userSpaceOnUse"
       x1="-6.6018665e-06"
       y1="82.383476"
       x2="1912.931"
       y2="82.383476" /><linearGradient
       inkscape:collect="always"
       xlink:href="#linearGradient338"
       id="linearGradient19"
       gradientUnits="userSpaceOnUse"
       x1="-6.6018665e-06"
       y1="81.599571"
       x2="1912.931"
       y2="81.599571" /><linearGradient
       inkscape:collect="always"
       xlink:href="#linearGradient454"
       id="linearGradient20"
       gradientUnits="userSpaceOnUse"
       x1="-6.6018665e-06"
       y1="85.442467"
       x2="1912.931"
       y2="85.442467" /><linearGradient
       inkscape:collect="always"
       xlink:href="#linearGradient454"
       id="linearGradient21"
       gradientUnits="userSpaceOnUse"
       x1="-6.6018665e-06"
       y1="85.442467"
       x2="1912.931"
       y2="85.442467" /><linearGradient
       inkscape:collect="always"
       xlink:href="#linearGradient454"
       id="linearGradient22"
       gradientUnits="userSpaceOnUse"
       x1="-6.6018665e-06"
       y1="85.442467"
       x2="1912.931"
       y2="85.442467" /><linearGradient
       inkscape:collect="always"
       xlink:href="#linearGradient454"
       id="linearGradient23"
       gradientUnits="userSpaceOnUse"
       x1="-6.6018665e-06"
       y1="85.442467"
       x2="1912.931"
       y2="85.442467" /><linearGradient
       inkscape:collect="always"
       xlink:href="#linearGradient454"
       id="linearGradient24"
       gradientUnits="userSpaceOnUse"
       x1="-6.6018665e-06"
       y1="85.442467"
       x2="1912.931"
       y2="85.442467" /><linearGradient
       inkscape:collect="always"
       xlink:href="#linearGradient454"
       id="linearGradient25"
       gradientUnits="userSpaceOnUse"
       x1="-6.6018665e-06"
       y1="85.442467"
       x2="1912.931"
       y2="85.442467" /><linearGradient
       inkscape:collect="always"
       xlink:href="#linearGradient454"
       id="linearGradient26"
       gradientUnits="userSpaceOnUse"
       x1="-6.6018665e-06"
       y1="85.442467"
       x2="1912.931"
       y2="85.442467" /><linearGradient
       inkscape:collect="always"
       xlink:href="#linearGradient454"
       id="linearGradient27"
       gradientUnits="userSpaceOnUse"
       x1="-6.6018665e-06"
       y1="85.442467"
       x2="1912.931"
       y2="85.442467" /><linearGradient
       inkscape:collect="always"
       xlink:href="#linearGradient454"
       id="linearGradient28"
       gradientUnits="userSpaceOnUse"
       x1="-6.6018665e-06"
       y1="85.442467"
       x2="1912.931"
       y2="85.442467" /></defs><g
     inkscape:groupmode="layer"
     id="layer5"
     inkscape:label="Layer 5"
     style="display:inline"
     transform="translate(-1371.2078,1526.046)"><g
       id="g91"
       style="fill:url(#linearGradient215)"
       inkscape:export-filename="../../../media/yuri/Data/Documents/project/player/player/front/public/musicLine.svg"
       inkscape:export-xdpi="96"
       inkscape:export-ydpi="96"
       transform="translate(1370.4824,-1536.6744)"><g
         id="g298"
         style="fill:url(#linearGradient339);fill-opacity:1;stroke:url(#linearGradient299);stroke-opacity:0.996078"
         inkscape:export-filename="../../../media/yuri/Data/Documents/project/player/player/front/public/musicLine.svg"
         inkscape:export-xdpi="96"
         inkscape:export-ydpi="96"
         transform="translate(15.463605,-0.32732881)"><g
           id="g436"
           style="fill:url(#linearGradient19);stroke:url(#linearGradient437);stroke-width:0.7;stroke-dasharray:none"><path
             style="opacity:1;fill:url(#linearGradient367);fill-opacity:1;stroke:url(#linearGradient1);stroke-width:0.7;stroke-linecap:butt;stroke-linejoin:round;stroke-dasharray:none;stroke-opacity:0.996078"
             d="M 0.78574337,35.337981 H 1912.1453"
             id="path17" /><path
             style="opacity:1;fill:url(#linearGradient369);fill-opacity:1;stroke:url(#linearGradient6);stroke-width:0.7;stroke-linecap:butt;stroke-linejoin:round;stroke-dasharray:none;stroke-opacity:0.996078"
             d="M 0.78574337,58.860727 H 1912.1453"
             id="path43" /><path
             style="opacity:1;fill:url(#linearGradient371);fill-opacity:1;stroke:url(#linearGradient7);stroke-width:0.7;stroke-linecap:butt;stroke-linejoin:round;stroke-dasharray:none;stroke-opacity:0.996078"
             d="M 0.78574337,129.42897 H 1912.1453"
             id="path44" /><path
             style="opacity:1;fill:url(#linearGradient373);fill-opacity:1;stroke:url(#linearGradient9);stroke-width:0.7;stroke-linecap:butt;stroke-linejoin:round;stroke-dasharray:none;stroke-opacity:0.996078"
             d="M 0.78574337,82.383474 H 1912.1453"
             id="path45" /><path
             style="opacity:1;fill:url(#linearGradient375);fill-opacity:1;stroke:url(#linearGradient11);stroke-width:0.7;stroke-linecap:butt;stroke-linejoin:round;stroke-dasharray:none;stroke-opacity:0.996078"
             d="M 0.78574337,105.90623 H 1912.1453"
             id="path46" /><path
             style="opacity:1;fill:url(#linearGradient377);fill-opacity:1;stroke:url(#linearGradient17);stroke-width:0.7;stroke-linecap:butt;stroke-linejoin:round;stroke-dasharray:none;stroke-opacity:0.996078"
             d="M 0.78574337,151.89348 H 1912.1453"
             id="path333" /><path
             style="opacity:0.0450831;fill:url(#linearGradient378);fill-opacity:1;stroke:url(#linearGradient18);stroke-width:0.7;stroke-linecap:butt;stroke-linejoin:round;stroke-dasharray:none;stroke-opacity:0.996078"
             d="M 0.78574337,11.305663 H 1912.1453"
             id="path335" /></g></g><g
         id="g384"
         style="fill:url(#linearGradient385)"><path
           style="fill:url(#linearGradient20);fill-opacity:1;stroke-width:0.615076"
           d="m 67.190601,85.708925 c -1.642228,-3.862673 -4.652404,-7.086894 -8.406234,-8.783271 -3.622783,-1.678541 -7.732113,-1.832311 -11.142075,-0.888786 -2.005141,0.535114 -3.734128,1.398683 -5.246589,2.436311 -0.154404,-0.913382 -0.315549,-1.808933 -0.464399,-2.73462 -0.29092,-1.74743 -0.547409,-3.531152 -0.794665,-5.324709 1.629325,-1.55122 3.18794,-3.212538 4.559548,-5.041157 3.424744,-4.227411 5.917027,-9.416186 6.503203,-14.915574 1.66622,-16.460644 -3.598201,-24.363131 -7.865593,-23.955338 -9.327007,1.41652 -8.088855,17.34943 -6.251,33.862356 -1.252908,1.550604 -2.572266,3.069224 -4.013372,4.479592 l -2.613471,2.567321 c -0.863541,0.827895 -1.770175,1.800945 -2.701408,2.85272 -3.613559,3.978925 -6.578842,8.59568 -8.324432,13.8761 -1.808317,5.225063 -1.700682,11.466848 0.966913,16.40037 2.591302,4.96981 7.043841,8.32812 11.677193,10.1715 4.551574,1.73759 9.239051,2.38341 13.748792,2.0808 0.43916,2.35634 0.854329,4.64935 1.181556,6.80642 1.411595,5.71775 -0.615071,10.86407 -4.176978,12.64103 -2.668194,1.21723 -5.177696,0.56341 -6.850711,-0.52036 0.185787,0.0271 0.369042,0.0658 0.561562,0.0694 2.662053,0.0793 4.886772,-2.0199 4.960588,-4.67702 0.07273,-2.66513 -2.040201,-4.86709 -4.693025,-4.94029 -2.646673,-0.0665 -4.871405,2.02667 -4.932904,4.6844 -0.0056,0.21283 0.02393,0.41703 0.04422,0.62308 l -0.01777,0.003 c 0.004,-0.0142 0.01114,0.0123 0.02264,0.0597 0.122376,1.05609 0.568943,2.01868 1.266437,2.75616 0.128527,0.18266 0.260176,0.36658 0.418245,0.55971 0.784846,0.93737 1.989151,1.93996 3.655401,2.58577 1.69207,0.6077 3.814073,0.86971 6.10584,0.1341 2.28318,-0.69996 4.462986,-2.72602 5.464333,-5.4139 0.525281,-1.31996 0.873418,-2.81151 0.842047,-4.32521 -0.04742,-1.63734 -0.254638,-3.01879 -0.471138,-4.56879 -0.333382,-2.14045 -0.735632,-4.39287 -1.164351,-6.69571 4.016432,-0.55479 7.844052,-1.87413 11.249744,-3.86452 3.793773,-2.42154 6.743673,-6.14952 7.8471,-10.420602 1.208014,-4.23479 0.720887,-8.735913 -0.945357,-12.58075 z M 46.41152,32.59041 c 1.875983,0.59724 2.122009,3.157183 2.099866,4.793901 -0.06629,3.874356 -1.018575,7.761634 -2.87917,11.168537 -1.79724,3.277736 -3.668313,6.364798 -5.747872,9.359601 C 38.84855,41.398291 42.6405,31.391015 46.41152,32.59041 Z m -11.676589,74.48255 c -3.775332,-1.98363 -7.054292,-5.03132 -8.574778,-8.796192 -1.538923,-3.7409 -1.215988,-7.950473 0.526524,-11.795922 1.757886,-3.831921 4.744677,-7.324317 7.992912,-10.407687 0.768832,-0.723325 1.609018,-1.489712 2.612207,-2.299767 l 1.348855,-1.131122 c 0.324768,-0.271251 0.653825,-0.541885 0.977978,-0.821741 0.207913,1.407909 0.415786,2.807816 0.615085,4.191123 0.194274,1.236918 0.395477,2.437541 0.593544,3.652313 -2.84719,2.481215 -4.611223,5.656234 -5.314251,8.459747 -1.156354,4.756996 -0.116363,8.449286 0.765767,10.645716 0.45699,1.11329 0.885094,1.909822 1.213552,2.439392 0.319218,0.52221 0.487742,0.7836 0.487742,0.7836 0,0 -0.319211,-1.23444 -0.573868,-3.515142 -0.186976,-2.23949 -0.235561,-5.65131 1.412224,-9.198452 0.637214,-1.446661 1.637926,-2.893931 2.921606,-4.178207 0.876484,5.078676 1.76833,9.967289 2.617135,14.586509 0.640288,3.583432 1.311944,7.009392 1.936258,10.273602 -4.000445,-0.0671 -8.033496,-1.00564 -11.558492,-2.88777 z m 30.743918,-9.362062 c -0.513576,3.624632 -2.881025,7.086282 -6.375248,9.094502 -3.079691,1.80893 -6.760308,2.85517 -10.562691,3.10612 -0.656887,-3.38352 -1.388836,-6.92266 -2.163222,-10.619272 -1.027179,-4.90215 -2.072189,-10.112452 -3.061226,-15.550334 1.571509,-1.178485 3.432118,-2.107247 5.565202,-2.540873 4.893544,-0.985351 10.765661,1.015487 14.303585,6.588072 1.776331,2.730932 2.795494,6.271925 2.2936,9.921785 z"
           id="path284-4"
           inkscape:export-filename="../../../media/yuri/Data/Documents/project/player/player/front/public/musicLine.png"
           inkscape:export-xdpi="96"
           inkscape:export-ydpi="96" /><path
           style="fill:url(#linearGradient21);fill-opacity:1;stroke-width:0.854736"
           d="m 181.48102,33.157194 0.0154,-4.629231 -29.93529,8.294323 v 4.000149 l 0.0127,-0.0034 v 14.032997 c -0.88638,-0.398306 -2.08642,-0.388051 -3.22919,0.117952 -1.82398,0.81114 -2.80866,2.576165 -2.20521,3.944591 0.60602,1.370993 2.57872,1.821436 4.40444,1.012857 1.62398,-0.719685 2.57873,-2.196663 2.3394,-3.478761 v -15.96553 l 13.69537,-3.507824 v 13.869744 c -0.89233,-0.425656 -2.11544,-0.430786 -3.28215,0.08633 -1.82659,0.810285 -2.81037,2.575309 -2.20693,3.945444 0.606,1.368427 2.57787,1.81887 4.40359,1.013714 1.48638,-0.661565 2.40092,-1.950502 2.36588,-3.14627 h 0.0273 V 36.640237 l 12.24917,-3.13858 v 12.907315 c -0.88892,-0.411126 -2.10006,-0.408561 -3.25396,0.102568 -1.8257,0.810287 -2.81034,2.576164 -2.20693,3.946299 0.60602,1.368427 2.57873,1.818016 4.40359,1.013714 1.50176,-0.669256 2.41974,-1.976997 2.36674,-3.183023 V 33.165749 Z"
           id="path64-2-9" /><rect
           style="fill:url(#linearGradient432);fill-opacity:1;stroke:none;stroke-width:1.09004;stroke-linecap:round;stroke-linejoin:round;stroke-dasharray:none;stroke-opacity:1"
           id="rect48"
           width="9.7862368"
           height="95.166832"
           x="0.7253657"
           y="34.472538" /><rect
           style="fill:url(#linearGradient433);fill-opacity:1;stroke:none;stroke-width:0.597784;stroke-linecap:round;stroke-linejoin:round;stroke-dasharray:none;stroke-opacity:1"
           id="rect49"
           width="2.9280419"
           height="95.659096"
           x="13.326167"
           y="34.22641" /><path
           style="fill:url(#linearGradient497);fill-opacity:1;stroke-width:0.651771"
           d="m 583.75002,31.082268 0.0118,-3.52998 -22.8269,6.32476 v 3.05028 l 0.01,-0.003 V 47.62507 c -0.6759,-0.30373 -1.59098,-0.29591 -2.46239,0.0899 -1.39087,0.61853 -2.14172,1.96443 -1.68157,3.00791 0.46212,1.04544 1.96639,1.38892 3.35858,0.77235 1.23834,-0.54879 1.96638,-1.67505 1.78388,-2.6527 V 36.668148 l 10.44328,-2.67486 v 10.576253 c -0.68044,-0.32458 -1.61311,-0.32849 -2.50277,0.0658 -1.39285,0.61788 -2.14302,1.963779 -1.68287,3.008569 0.46209,1.04348 1.96573,1.38696 3.35791,0.773 1.13343,-0.50448 1.8308,-1.48734 1.80408,-2.399159 h 0.0209 V 33.737768 l 9.3405,-2.3933 v 9.842373 c -0.67784,-0.31351 -1.60139,-0.31155 -2.48129,0.0782 -1.39216,0.61787 -2.143,1.96443 -1.68286,3.00921 0.46211,1.04348 1.96638,1.38631 3.35791,0.773 1.14516,-0.51033 1.84515,-1.50754 1.80474,-2.42719 V 31.088318 Z"
           id="path77" /><path
           style="fill:url(#linearGradient22);fill-opacity:1;stroke-width:0.923405"
           d="m 431.93134,48.839142 -14.98127,3.423972 v 3.902295 l 0.009,-0.0018 v 12.817755 c -0.80519,-0.342578 -1.87819,-0.327808 -2.90316,0.125586 -1.66676,0.740569 -2.56797,2.352828 -2.01672,3.603113 0.55588,1.252131 2.35653,1.662118 4.02511,0.926169 1.18841,-0.528188 1.97608,-1.499601 2.13582,-2.46548 h 0.012 v -0.05633 c 0.0287,-0.209612 0.0332,-0.418296 0,-0.622368 V 57.946741 l 12.45297,-2.895787 v 10.760399 c -0.80704,-0.35182 -1.89019,-0.339814 -2.92256,0.118191 -1.66767,0.740569 -2.56798,2.353751 -2.01671,3.604036 0.55591,1.252131 2.35745,1.663969 4.02512,0.926174 1.38785,-0.616834 2.23278,-1.837569 2.15891,-2.951194 h 0.0102 V 52.588244 l 0.0102,-0.0026 v -3.746241 z m -1.26412,4.923577 -12.453,2.896711 v -0.79505 l 12.453,-2.975197 z"
           id="path80" /><path
           style="fill:url(#linearGradient23);fill-opacity:1;stroke-width:0.793248"
           d="m 503.69564,82.81294 -0.39663,-0.248287 c -2.09654,-1.340583 -2.43843,-2.002151 -2.632,-2.708931 v -2.961183 c 0.45454,0.456116 1.10024,0.953481 2.04658,1.558726 l 0.41329,0.25939 c 2.11398,1.313613 4.1098,2.778737 3.29116,4.950642 -0.10548,0.280807 0.0365,0.59414 0.31651,0.699643 0.0634,0.0238 0.12772,0.0349 0.19117,0.0349 0.21973,0 0.42676,-0.134058 0.50847,-0.351407 1.20097,-3.188844 -2.01009,-5.183855 -3.73458,-6.256322 l -0.4014,-0.25225 c -2.13462,-1.365968 -2.45113,-2.025154 -2.64309,-2.744628 -0.0777,-0.289535 -0.37441,-0.460876 -0.66553,-0.384724 -0.26575,0.0706 -0.4236,0.329198 -0.38869,0.594934 -0.007,0.0357 -0.0214,0.06901 -0.0214,0.106294 v 18.617457 c -1.00662,-0.631422 -2.51457,-0.710748 -3.95352,-0.07457 -2.03308,0.903497 -3.13413,2.873122 -2.45987,4.39774 0.67584,1.527005 2.87314,2.033086 4.91019,1.129597 1.86254,-0.824196 2.9374,-2.539187 2.58995,-3.995571 V 81.92133 c 0.45453,0.456116 1.10022,0.953481 2.04736,1.559521 l 0.40852,0.256218 c 2.11639,1.312819 4.11456,2.777151 3.29592,4.953814 -0.10547,0.280807 0.0365,0.59414 0.31651,0.699643 0.0635,0.0238 0.12772,0.0349 0.19118,0.0349 0.21973,0 0.42676,-0.134058 0.50847,-0.352199 1.20335,-3.194398 -2.01168,-5.188615 -3.73855,-6.260288 z"
           id="path81" /><path
           style="fill:url(#linearGradient501);fill-opacity:1;stroke-width:0.650491"
           d="m 607.07283,124.68412 -11.89678,2.71904 v 3.09893 l 0.007,-0.002 v 10.18014 c -0.63943,-0.27256 -1.4909,-0.2602 -2.30467,0.0995 -1.32375,0.58739 -2.03993,1.86885 -1.60086,2.8615 0.4404,0.99459 1.87016,1.31984 3.19651,0.7357 0.94386,-0.41957 1.56963,-1.19104 1.69648,-1.95862 h 0.01 v -0.0455 c 0.0228,-0.16587 0.0267,-0.33045 0,-0.49177 v -11.61897 l 9.88936,-2.36257 v 10.26275 c -0.64073,-0.27971 -1.50067,-0.2693 -2.32029,0.0943 -1.32439,0.58804 -2.03993,1.86886 -1.60214,2.8615 0.44103,0.9946 1.87146,1.32179 3.19585,0.7357 1.10323,-0.48981 1.77453,-1.45969 1.71468,-2.34371 h 0.008 v -11.84799 l 0.008,-0.002 v -2.97599 z"
           id="path82" /><path
           style="fill:url(#linearGradient499);fill-opacity:1;stroke-width:0.681552"
           d="m 1396.4009,141.6935 -0.01,-12.48871 c 0,-0.25558 -0.2072,-0.46278 -0.4627,-0.46278 v 0 c -0.1104,0 -0.2073,0.0436 -0.287,0.10837 l -30.0713,9.07279 c -0.01,-6.4e-4 -0.016,-0.005 -0.024,-0.005 -0.2556,0 -0.4635,0.20719 -0.4635,0.46345 v 11.647 c -0.6256,-0.2733 -1.4646,-0.26444 -2.2661,0.0886 -1.2895,0.57386 -1.9867,1.82246 -1.5594,2.79162 0.4287,0.96781 1.8238,1.28813 3.1154,0.71631 1.177,-0.52343 1.8517,-1.60436 1.6357,-2.52718 v -8.00343 l 9.6868,-2.95043 v 7.1624 c -0.6311,-0.30329 -1.4994,-0.30874 -2.3275,0.0579 -1.2915,0.57182 -1.9881,1.81974 -1.5607,2.78958 0.4287,0.96985 1.8238,1.28813 3.1153,0.71631 0.9345,-0.41438 1.5505,-1.1818 1.6617,-1.94105 h 0.037 v -9.06733 l 8.6639,-2.63896 v 6.80322 c -0.625,-0.27534 -1.4667,-0.2658 -2.2689,0.0893 -1.2915,0.57318 -1.9881,1.8211 -1.5607,2.78958 0.4287,0.96985 1.8238,1.28813 3.1147,0.71631 0.8628,-0.38167 1.4503,-1.06526 1.6241,-1.76589 h 0.017 v -0.0784 c 0.045,-0.22492 0.048,-0.44983 0,-0.66656 v -8.16973 l 9.2568,-2.82025 v 6.48903 c -0.6249,-0.27466 -1.466,-0.26513 -2.2675,0.09 -1.2922,0.57318 -1.988,1.8211 -1.5614,2.78958 0.4287,0.96984 1.8238,1.28813 3.1154,0.71631 1.1743,-0.51866 1.8476,-1.59346 1.6418,-2.51219 z m -30.391,-0.0518 v -2.40042 l 9.6869,-2.92248 v 2.37247 z m 10.6124,-3.23259 v -2.36975 l 8.6639,-2.61374 v 2.34453 z m 9.5901,-2.92044 v -2.34249 l 9.2547,-2.7923 v 2.31454 z"
           id="path136-3" /><path
           style="fill:url(#linearGradient502);fill-opacity:1;stroke-width:0.966934"
           d="m 694.03123,76.445912 -0.48347,-0.30265 c -2.55559,-1.634112 -2.97234,-2.440534 -3.20829,-3.302068 v -3.609553 c 0.55406,0.555986 1.34115,1.162251 2.49469,1.900019 l 0.50378,0.316185 c 2.57685,1.601238 5.00967,3.387159 4.01177,6.034617 -0.12857,0.342291 0.0445,0.72423 0.38582,0.852834 0.0774,0.02901 0.15568,0.04254 0.23303,0.04254 0.26784,0 0.52021,-0.163411 0.6198,-0.42835 1.46393,-3.887062 -2.45021,-6.318893 -4.55229,-7.626184 l -0.48929,-0.307481 c -2.602,-1.665056 -2.98782,-2.468574 -3.2218,-3.345582 -0.0948,-0.352931 -0.45639,-0.561787 -0.81126,-0.468962 -0.32393,0.08606 -0.51635,0.401278 -0.4738,0.725198 -0.009,0.04351 -0.026,0.08412 -0.026,0.129569 v 22.693867 c -1.22704,-0.76968 -3.06517,-0.866371 -4.81918,-0.09089 -2.47824,1.101325 -3.82037,3.502208 -2.99848,5.360652 0.82383,1.861354 3.50223,2.478246 5.98531,1.37693 2.27035,-1.004659 3.58056,-3.095158 3.15704,-4.870428 V 75.35908 c 0.55406,0.555986 1.34112,1.162252 2.49564,1.900987 l 0.49796,0.312319 c 2.5798,1.60027 5.01549,3.385226 4.0176,6.038481 -0.12858,0.342294 0.0445,0.724232 0.38581,0.852838 0.0773,0.029 0.15568,0.04254 0.23303,0.04254 0.26784,0 0.52021,-0.163406 0.6198,-0.429314 1.46684,-3.893831 -2.45214,-6.324694 -4.55712,-7.631016 z"
           id="path83" /><path
           style="fill:url(#linearGradient498);fill-opacity:1;stroke-width:0.542644"
           d="m 1140.5599,124.63676 -9.9244,2.26825 v 2.58515 l 0.01,-0.002 v 8.49235 c -0.5334,-0.22737 -1.2437,-0.21706 -1.9226,0.083 -1.1042,0.49001 -1.7017,1.55901 -1.3354,2.38709 0.3674,0.8297 1.5601,1.10102 2.6666,0.61372 0.7873,-0.35 1.3093,-0.99357 1.4152,-1.63389 h 0.01 v -0.038 c 0.019,-0.13837 0.022,-0.27566 0,-0.41024 v -9.69267 l 8.2498,-1.97088 v 8.56127 c -0.5345,-0.23334 -1.2519,-0.22465 -1.9357,0.0787 -1.1048,0.49055 -1.7017,1.55901 -1.3365,2.38709 0.3679,0.8297 1.5612,1.10264 2.666,0.61372 0.9203,-0.40861 1.4804,-1.21769 1.4304,-1.95514 h 0.01 v -9.88369 l 0.01,-0.002 V 124.636 Z"
           id="path84" /><path
           style="fill:url(#linearGradient500);fill-opacity:1;stroke-width:0.662521"
           d="m 1289.9223,33.013975 -0.3314,-0.20737 c -1.7509,-1.119657 -2.0366,-1.672199 -2.1982,-2.262503 v -2.473185 c 0.3796,0.380949 0.919,0.796349 1.7093,1.301851 l 0.3452,0.216643 c 1.7656,1.097131 3.4325,2.320805 2.7488,4.134784 -0.088,0.23453 0.031,0.496226 0.2643,0.584343 0.053,0.01988 0.1067,0.02915 0.1597,0.02915 0.1835,0 0.3564,-0.111965 0.4247,-0.293496 1.003,-2.663327 -1.6789,-4.329563 -3.1192,-5.22529 l -0.3352,-0.210679 c -1.7828,-1.140859 -2.0473,-1.691412 -2.2075,-2.292318 -0.065,-0.24182 -0.3127,-0.384925 -0.5559,-0.321322 -0.2219,0.05897 -0.3538,0.274947 -0.3246,0.496889 -0.01,0.02982 -0.018,0.05764 -0.018,0.08878 V 42.12958 c -0.8408,-0.527364 -2.1002,-0.593618 -3.302,-0.06228 -1.6981,0.754604 -2.6176,2.399638 -2.0545,3.673001 0.5644,1.275357 2.3997,1.698034 4.101,0.943441 1.5556,-0.688369 2.4533,-2.120733 2.1632,-3.337108 V 32.269301 c 0.3796,0.380949 0.9188,0.796349 1.7099,1.302514 l 0.3412,0.213994 c 1.7676,1.096469 3.4365,2.319481 2.7527,4.137433 -0.088,0.23453 0.031,0.496225 0.2644,0.584343 0.053,0.01988 0.1067,0.02915 0.1597,0.02915 0.1835,0 0.3564,-0.111966 0.4246,-0.294157 1.0051,-2.667966 -1.6801,-4.33354 -3.1224,-5.228602 z"
           id="path86" /><path
           style="fill:url(#linearGradient24);fill-opacity:1;stroke-width:0.795532"
           d="m 1220.0645,90.725471 -0.4137,-0.2394 c -2.1869,-1.29264 -2.5434,-1.93054 -2.7454,-2.61204 v -2.85527 c 0.4741,0.4398 1.1477,0.91937 2.1348,1.50297 l 0.4311,0.25011 c 2.205,1.26663 4.2868,2.67935 3.4329,4.77357 -0.11,0.27077 0.038,0.57289 0.3301,0.67462 0.066,0.023 0.1333,0.0337 0.1995,0.0337 0.2291,0 0.4451,-0.12927 0.5303,-0.33884 1.2527,-3.07479 -2.0966,-4.99844 -3.8954,-6.03255 l -0.4187,-0.24323 c -2.2266,-1.31711 -2.5567,-1.95272 -2.7569,-2.64646 -0.081,-0.27918 -0.3906,-0.44439 -0.6943,-0.37096 -0.2772,0.0681 -0.4418,0.31742 -0.4054,0.57365 -0.01,0.0344 -0.022,0.0665 -0.022,0.10249 v 17.951559 c -1.0499,-0.60884 -2.6228,-0.68533 -4.1238,-0.0719 -2.1207,0.87118 -3.2692,2.77036 -2.5658,4.24045 0.7049,1.47238 2.9969,1.96036 5.1217,1.08919 1.9427,-0.79471 3.0639,-2.44836 2.7015,-3.85266 V 89.865791 c 0.4741,0.43981 1.1476,0.91938 2.1355,1.50374 l 0.4262,0.24706 c 2.2075,1.26586 4.2918,2.67782 3.4379,4.77663 -0.1101,0.27076 0.038,0.57289 0.3301,0.67461 0.066,0.0229 0.1332,0.0337 0.1994,0.0337 0.2292,0 0.4452,-0.12927 0.5304,-0.3396 1.2552,-3.08015 -2.0983,-5.00304 -3.8996,-6.03638 z"
           id="path87" /><path
           style="fill:url(#linearGradient25);fill-opacity:1;stroke-width:0.801128"
           d="m 1385.3306,53.336951 -12.9975,2.970571 v 3.385555 l 0.01,-0.0015 v 11.120369 c -0.6986,-0.297216 -1.6295,-0.284398 -2.5187,0.108955 -1.4461,0.642503 -2.228,2.041267 -1.7497,3.12599 0.4823,1.086324 2.0444,1.442024 3.4921,0.803527 1.031,-0.458244 1.7144,-1.301026 1.853,-2.139003 h 0.01 v -0.04885 c 0.025,-0.181856 0.029,-0.362908 0,-0.539957 V 61.238525 l 10.8039,-2.512328 v 9.335509 c -0.7001,-0.305229 -1.6399,-0.294815 -2.5355,0.102544 -1.4469,0.642502 -2.228,2.042068 -1.7497,3.126792 0.4823,1.086324 2.0453,1.443626 3.4921,0.803527 1.2041,-0.535149 1.9372,-1.594238 1.8731,-2.560396 h 0.01 V 56.589598 l 0.01,-0.0023 v -3.250155 z m -1.0968,4.271599 -10.8039,2.51313 v -0.68977 l 10.8039,-2.581223 z"
           id="path88" /><path
           style="fill:url(#linearGradient410);fill-opacity:1;stroke-width:0.612037"
           d="m 1506.4401,90.758755 -11.1935,2.55831 v 2.91573 l 0.01,-0.002 v 9.578345 c -0.6017,-0.25644 -1.4028,-0.24481 -2.1685,0.0937 -1.2455,0.55266 -1.9193,1.75837 -1.5062,2.69233 0.4143,0.93581 1.7596,1.24182 3.0075,0.69222 0.8881,-0.39477 1.4769,-1.12064 1.5962,-1.84284 h 0.01 v -0.0428 c 0.021,-0.15607 0.025,-0.31092 0,-0.4627 V 96.006885 l 9.3047,-2.22291 v 9.656075 c -0.6028,-0.26317 -1.4119,-0.25338 -2.1831,0.0888 -1.2461,0.55328 -1.9193,1.75837 -1.5074,2.69234 0.4149,0.9358 1.7608,1.24365 3.0069,0.69221 1.038,-0.46086 1.6696,-1.37341 1.6133,-2.20516 h 0.01 V 93.560635 l 0.01,-0.002 v -2.80006 z"
           id="path90" /><path
           style="fill:url(#linearGradient411);fill-opacity:1;stroke-width:0.823792"
           d="m 1333.0331,111.59829 -0.4119,-0.25785 c -2.1773,-1.3922 -2.5323,-2.07924 -2.7334,-2.81324 v -3.0752 c 0.4721,0.47368 1.1426,0.99019 2.1254,1.61874 l 0.4292,0.26938 c 2.1954,1.3642 4.2681,2.88573 3.4179,5.14127 -0.1095,0.29162 0.038,0.61701 0.3287,0.72658 0.066,0.0247 0.1326,0.0363 0.1986,0.0363 0.2281,0 0.4431,-0.13922 0.528,-0.36494 1.2472,-3.31163 -2.0875,-5.38346 -3.8784,-6.49722 l -0.4169,-0.26196 c -2.2168,-1.41857 -2.5455,-2.10313 -2.7448,-2.85031 -0.081,-0.30069 -0.3888,-0.47862 -0.6912,-0.39954 -0.276,0.0733 -0.4399,0.34187 -0.4036,0.61784 -0.01,0.0371 -0.022,0.0717 -0.022,0.11039 v 19.33432 c -1.0454,-0.65574 -2.6114,-0.73812 -4.1058,-0.0774 -2.1113,0.93829 -3.2548,2.98375 -2.5545,4.56708 0.7018,1.5858 2.9837,2.11136 5.0992,1.17309 1.9343,-0.85593 3.0505,-2.63696 2.6897,-4.14942 v -13.77376 c 0.472,0.47368 1.1426,0.99019 2.1262,1.61957 l 0.4242,0.26608 c 2.1979,1.36337 4.273,2.88408 3.4229,5.14456 -0.1096,0.29162 0.038,0.61702 0.3287,0.72658 0.066,0.0247 0.1326,0.0363 0.1985,0.0363 0.2282,0 0.4432,-0.13922 0.528,-0.36576 1.2498,-3.3174 -2.0891,-5.3884 -3.8824,-6.50134 z"
           id="path91" /><path
           style="fill:url(#linearGradient26);fill-opacity:1;stroke-width:0.793248"
           d="m 237.567,110.32532 -0.39663,-0.24829 c -2.09654,-1.34058 -2.43843,-2.00215 -2.632,-2.70893 v -2.96118 c 0.45454,0.45612 1.10024,0.95348 2.04658,1.55873 l 0.41329,0.25939 c 2.11398,1.31361 4.1098,2.77873 3.29116,4.95065 -0.10548,0.2808 0.0365,0.59414 0.31651,0.69964 0.0634,0.0238 0.12772,0.0349 0.19117,0.0349 0.21973,0 0.42676,-0.13406 0.50847,-0.35141 1.20097,-3.18885 -2.01009,-5.18386 -3.73458,-6.25633 l -0.4014,-0.25225 c -2.13462,-1.36597 -2.45113,-2.02515 -2.64309,-2.74463 -0.0777,-0.28953 -0.37441,-0.46087 -0.66553,-0.38472 -0.26575,0.0706 -0.4236,0.3292 -0.38869,0.59493 -0.007,0.0357 -0.0214,0.069 -0.0214,0.1063 v 18.61746 c -1.00662,-0.63142 -2.51457,-0.71074 -3.95352,-0.0746 -2.03308,0.9035 -3.13413,2.87313 -2.45987,4.39774 0.67584,1.52701 2.87314,2.03309 4.91019,1.1296 1.86254,-0.82419 2.9374,-2.53919 2.58995,-3.99557 v -13.26307 c 0.45453,0.45612 1.10022,0.95348 2.04736,1.55953 l 0.40852,0.25622 c 2.11639,1.31282 4.11456,2.77715 3.29592,4.95381 -0.10547,0.28081 0.0365,0.59414 0.31651,0.69965 0.0635,0.0238 0.12772,0.0349 0.19118,0.0349 0.21973,0 0.42676,-0.13406 0.50847,-0.3522 1.20335,-3.1944 -2.01168,-5.18862 -3.73855,-6.2603 z"
           id="path339" /><path
           style="fill:url(#linearGradient27);fill-opacity:1;stroke-width:0.801128"
           d="m 1589.6126,36.530277 -12.9975,2.970571 v 3.385555 l 0.01,-0.0015 v 11.120369 c -0.6986,-0.297216 -1.6295,-0.284398 -2.5187,0.108955 -1.4461,0.642503 -2.228,2.041267 -1.7497,3.12599 0.4823,1.086324 2.0444,1.442024 3.4921,0.803527 1.031,-0.458244 1.7144,-1.301026 1.853,-2.139003 h 0.01 v -0.04885 c 0.025,-0.181856 0.029,-0.362908 0,-0.539957 V 44.431851 l 10.8039,-2.512328 v 9.335509 c -0.7001,-0.305229 -1.6399,-0.294815 -2.5355,0.102544 -1.4469,0.642502 -2.228,2.042068 -1.7497,3.126792 0.4823,1.086324 2.0453,1.443626 3.4921,0.803527 1.2041,-0.535149 1.9372,-1.594238 1.8731,-2.560396 h 0.01 V 39.782924 l 0.01,-0.0023 v -3.250155 z m -1.0968,4.271599 -10.8039,2.51313 v -0.68977 l 10.8039,-2.581223 z"
           id="path340" /><path
           style="fill:url(#linearGradient28);fill-opacity:1;stroke-width:0.823792"
           d="m 1610.5137,118.2912 -0.4119,-0.25785 c -2.1773,-1.3922 -2.5323,-2.07924 -2.7334,-2.81324 v -3.0752 c 0.4721,0.47368 1.1426,0.99019 2.1254,1.61874 l 0.4292,0.26938 c 2.1954,1.3642 4.2681,2.88573 3.4179,5.14127 -0.1095,0.29162 0.038,0.61701 0.3287,0.72658 0.066,0.0247 0.1326,0.0363 0.1986,0.0363 0.2281,0 0.4431,-0.13922 0.528,-0.36494 1.2472,-3.31163 -2.0875,-5.38346 -3.8784,-6.49722 l -0.4169,-0.26196 c -2.2168,-1.41857 -2.5455,-2.10313 -2.7448,-2.85031 -0.081,-0.30069 -0.3888,-0.47862 -0.6912,-0.39954 -0.276,0.0733 -0.4399,0.34187 -0.4036,0.61784 -0.01,0.0371 -0.022,0.0717 -0.022,0.11039 v 19.33432 c -1.0454,-0.65574 -2.6114,-0.73812 -4.1058,-0.0774 -2.1113,0.93829 -3.2548,2.98375 -2.5545,4.56708 0.7018,1.5858 2.9837,2.11136 5.0992,1.17309 1.9343,-0.85593 3.0505,-2.63696 2.6897,-4.14942 v -13.77376 c 0.472,0.47368 1.1426,0.99019 2.1262,1.61957 l 0.4242,0.26608 c 2.1979,1.36337 4.273,2.88408 3.4229,5.14456 -0.1096,0.29162 0.038,0.61702 0.3287,0.72658 0.066,0.0247 0.1326,0.0363 0.1985,0.0363 0.2282,0 0.4432,-0.13922 0.528,-0.36576 1.2498,-3.3174 -2.0891,-5.3884 -3.8824,-6.50134 z"
           id="path341" /><path
           style="fill:url(#linearGradient409);fill-opacity:1;stroke-width:0.801128"
           d="m 1695.2752,67.715896 -12.9975,2.970571 v 3.385555 l 0.01,-0.0015 v 11.120369 c -0.6986,-0.297216 -1.6295,-0.284398 -2.5187,0.108955 -1.4461,0.642503 -2.228,2.041267 -1.7497,3.12599 0.4823,1.086324 2.0444,1.442024 3.4921,0.803527 1.031,-0.458244 1.7144,-1.301026 1.853,-2.139003 h 0.01 v -0.04885 c 0.025,-0.181856 0.029,-0.362908 0,-0.539957 V 75.61747 l 10.8039,-2.512328 v 9.335509 c -0.7001,-0.305229 -1.6399,-0.294815 -2.5355,0.102544 -1.4469,0.642502 -2.228,2.042068 -1.7497,3.126792 0.4823,1.086324 2.0453,1.443626 3.4921,0.803527 1.2041,-0.535149 1.9372,-1.594238 1.8731,-2.560396 h 0.01 V 70.968543 l 0.01,-0.0023 v -3.250155 z m -1.0968,4.271599 -10.8039,2.51313 v -0.68977 l 10.8039,-2.581223 z"
           id="path405" /><path
           style="fill:url(#linearGradient408);fill-opacity:1;stroke-width:0.823792"
           d="m 1738.9212,111.80353 -0.4119,-0.25785 c -2.1773,-1.3922 -2.5323,-2.07924 -2.7334,-2.81324 v -3.0752 c 0.4721,0.47368 1.1426,0.99019 2.1254,1.61874 l 0.4292,0.26938 c 2.1954,1.3642 4.2681,2.88573 3.4179,5.14127 -0.1095,0.29162 0.038,0.61701 0.3287,0.72658 0.066,0.0247 0.1326,0.0363 0.1986,0.0363 0.2281,0 0.4431,-0.13922 0.528,-0.36494 1.2472,-3.31163 -2.0875,-5.38346 -3.8784,-6.49722 l -0.4169,-0.26196 c -2.2168,-1.41857 -2.5455,-2.10313 -2.7448,-2.85031 -0.081,-0.30069 -0.3888,-0.47862 -0.6912,-0.39954 -0.276,0.0733 -0.4399,0.34187 -0.4036,0.61784 -0.01,0.0371 -0.022,0.0717 -0.022,0.11039 v 19.33432 c -1.0454,-0.65574 -2.6114,-0.73812 -4.1058,-0.0774 -2.1113,0.93829 -3.2548,2.98375 -2.5545,4.56708 0.7018,1.5858 2.9837,2.11136 5.0992,1.17309 1.9343,-0.85593 3.0505,-2.63696 2.6897,-4.14942 v -13.77376 c 0.472,0.47368 1.1426,0.99019 2.1262,1.61957 l 0.4242,0.26608 c 2.1979,1.36337 4.273,2.88408 3.4229,5.14456 -0.1096,0.29162 0.038,0.61702 0.3287,0.72658 0.066,0.0247 0.1326,0.0363 0.1985,0.0363 0.2282,0 0.4432,-0.13922 0.528,-0.36576 1.2498,-3.3174 -2.0891,-5.3884 -3.8824,-6.50134 z"
           id="path406" /><path
           style="fill:url(#linearGradient407);fill-opacity:1;stroke-width:0.801128"
           d="m 1879.9723,28.361219 -12.9975,2.970571 v 3.385555 l 0.01,-0.0015 v 11.120369 c -0.6986,-0.297216 -1.6295,-0.284398 -2.5187,0.108955 -1.4461,0.642503 -2.228,2.041267 -1.7497,3.12599 0.4823,1.086324 2.0444,1.442024 3.4921,0.803527 1.031,-0.458244 1.7144,-1.301026 1.853,-2.139003 h 0.01 v -0.04885 c 0.025,-0.181856 0.029,-0.362908 0,-0.539957 V 36.262793 l 10.8039,-2.512328 v 9.335509 c -0.7001,-0.305229 -1.6399,-0.294815 -2.5355,0.102544 -1.4469,0.642502 -2.228,2.042068 -1.7497,3.126792 0.4823,1.086324 2.0453,1.443626 3.4921,0.803527 1.2041,-0.535149 1.9372,-1.594238 1.8731,-2.560396 h 0.01 V 31.613866 l 0.01,-0.0023 v -3.250155 z m -1.0968,4.271599 -10.8039,2.51313 v -0.68977 l 10.8039,-2.581223 z"
           id="path407" /><path
           style="fill:url(#linearGradient412);fill-opacity:1;stroke-width:0.801128"
           d="m 1911.3284,77.692029 -12.9975,2.970571 v 3.385555 l 0.01,-0.0015 v 11.120369 c -0.6986,-0.297216 -1.6295,-0.284398 -2.5187,0.108955 -1.4461,0.642503 -2.228,2.041267 -1.7497,3.12599 0.4823,1.086324 2.0444,1.442024 3.4921,0.803527 1.031,-0.458244 1.7144,-1.301026 1.853,-2.139003 h 0.01 v -0.04885 c 0.025,-0.181856 0.029,-0.362908 0,-0.539957 V 85.593603 l 10.8039,-2.512328 v 9.335509 c -0.7001,-0.305229 -1.6399,-0.294815 -2.5355,0.102544 -1.4469,0.642502 -2.228,2.042068 -1.7497,3.126792 0.4823,1.086324 2.0453,1.443626 3.4921,0.803527 1.2041,-0.535149 1.9372,-1.594238 1.8731,-2.560396 h 0.01 V 80.944676 l 0.01,-0.0023 v -3.250155 z m -1.0968,4.271599 -10.8039,2.51313 v -0.68977 l 10.8039,-2.581223 z"
           id="path411" /></g></g></g></svg>
